<mxfile host="65bd71144e">
    <diagram id="84cEPHpCPCathmb42qxF" name="Page-1">
        <mxGraphModel dx="3217" dy="652" grid="1" gridSize="10" guides="1" tooltips="1" connect="1" arrows="1" fold="1" page="1" pageScale="1" pageWidth="850" pageHeight="1100" math="0" shadow="0">
            <root>
                <mxCell id="0"/>
                <mxCell id="1" parent="0"/>
                <mxCell id="2" value="" style="rounded=0;whiteSpace=wrap;html=1;align=left;movable=0;resizable=0;rotatable=0;deletable=0;editable=0;locked=1;connectable=0;" vertex="1" parent="1">
                    <mxGeometry x="-1620" y="60" width="500" height="700" as="geometry"/>
                </mxCell>
                <mxCell id="3" value="Email:" style="text;html=1;align=left;verticalAlign=middle;whiteSpace=wrap;rounded=0;movable=0;resizable=0;rotatable=0;deletable=0;editable=0;locked=1;connectable=0;" vertex="1" parent="1">
                    <mxGeometry x="-1610" y="115" width="50" height="30" as="geometry"/>
                </mxCell>
                <UserObject label="[ user@example.com&amp;nbsp; &amp;nbsp; &amp;nbsp;]" link="[ user@example.com     ]" id="4">
                    <mxCell style="rounded=0;whiteSpace=wrap;html=1;align=center;movable=0;resizable=0;rotatable=0;deletable=0;editable=0;locked=1;connectable=0;" vertex="1" parent="1">
                        <mxGeometry x="-1520" y="115" width="300" height="30" as="geometry"/>
                    </mxCell>
                </UserObject>
                <mxCell id="6" value="Course Registration Form" style="text;html=1;align=center;verticalAlign=middle;whiteSpace=wrap;rounded=0;flipH=0;flipV=1;fontSize=15;fontStyle=4;movable=0;resizable=0;rotatable=0;deletable=0;editable=0;locked=1;connectable=0;" vertex="1" parent="1">
                    <mxGeometry x="-1620" y="70" width="500" height="30" as="geometry"/>
                </mxCell>
                <mxCell id="8" value="Phone:" style="text;html=1;align=left;verticalAlign=middle;whiteSpace=wrap;rounded=0;movable=0;resizable=0;rotatable=0;deletable=0;editable=0;locked=1;connectable=0;" vertex="1" parent="1">
                    <mxGeometry x="-1610" y="160" width="50" height="30" as="geometry"/>
                </mxCell>
                <mxCell id="9" value="" style="rounded=0;whiteSpace=wrap;html=1;movable=0;resizable=0;rotatable=0;deletable=0;editable=0;locked=1;connectable=0;" vertex="1" parent="1">
                    <mxGeometry x="-1610" y="220" width="20" height="20" as="geometry"/>
                </mxCell>
                <mxCell id="10" value="+44 7123 456789" style="rounded=0;whiteSpace=wrap;html=1;align=center;movable=0;resizable=0;rotatable=0;deletable=0;editable=0;locked=1;connectable=0;" vertex="1" parent="1">
                    <mxGeometry x="-1520" y="160" width="300" height="30" as="geometry"/>
                </mxCell>
                <mxCell id="11" value="Are you a driver?&amp;nbsp; (tick if yes)" style="text;html=1;align=left;verticalAlign=bottom;whiteSpace=wrap;rounded=0;movable=0;resizable=0;rotatable=0;deletable=0;editable=0;locked=1;connectable=0;" vertex="1" parent="1">
                    <mxGeometry x="-1570" y="220" width="202.5" height="20" as="geometry"/>
                </mxCell>
                <mxCell id="13" value="Dietry restrictions?&amp;nbsp; (tick if yes)" style="text;html=1;align=left;verticalAlign=bottom;whiteSpace=wrap;rounded=0;movable=0;resizable=0;rotatable=0;deletable=0;editable=0;locked=1;connectable=0;" vertex="1" parent="1">
                    <mxGeometry x="-1570" y="280" width="212.5" height="20" as="geometry"/>
                </mxCell>
                <mxCell id="15" value="" style="rounded=0;whiteSpace=wrap;html=1;movable=0;resizable=0;rotatable=0;deletable=0;editable=0;locked=1;connectable=0;" vertex="1" parent="1">
                    <mxGeometry x="-1610" y="280" width="20" height="20" as="geometry"/>
                </mxCell>
                <mxCell id="20" value="Emergency Contact?&amp;nbsp; (tick if yes)" style="text;html=1;align=left;verticalAlign=middle;whiteSpace=wrap;rounded=0;movable=0;resizable=0;rotatable=0;deletable=0;editable=0;locked=1;connectable=0;" vertex="1" parent="1">
                    <mxGeometry x="-1570" y="500" width="190" height="20" as="geometry"/>
                </mxCell>
                <mxCell id="36" value="If &quot;Yes&quot;, please provide details" style="text;html=1;align=left;verticalAlign=bottom;whiteSpace=wrap;rounded=0;movable=0;resizable=0;rotatable=0;deletable=0;editable=0;locked=1;connectable=0;" vertex="1" parent="1">
                    <mxGeometry x="-1570" y="300" width="185" height="30" as="geometry"/>
                </mxCell>
                <mxCell id="38" value="" style="shape=link;html=1;align=center;horizontal=0;verticalAlign=top;width=2;movable=0;resizable=0;rotatable=0;deletable=0;editable=0;locked=1;connectable=0;" edge="1" parent="1">
                    <mxGeometry width="100" relative="1" as="geometry">
                        <mxPoint x="-1598.5" y="260" as="sourcePoint"/>
                        <mxPoint x="-1136.5" y="260" as="targetPoint"/>
                    </mxGeometry>
                </mxCell>
                <mxCell id="39" value="" style="shape=link;html=1;align=center;horizontal=0;verticalAlign=top;width=2;movable=0;resizable=0;rotatable=0;deletable=0;editable=0;locked=1;connectable=0;" edge="1" parent="1">
                    <mxGeometry width="100" relative="1" as="geometry">
                        <mxPoint x="-1598.5" y="470" as="sourcePoint"/>
                        <mxPoint x="-1136.5" y="470" as="targetPoint"/>
                    </mxGeometry>
                </mxCell>
                <mxCell id="41" value="" style="rounded=0;whiteSpace=wrap;html=1;movable=0;resizable=0;rotatable=0;deletable=0;editable=0;locked=1;connectable=0;" vertex="1" parent="1">
                    <mxGeometry x="-1570" y="340" width="400" height="90" as="geometry"/>
                </mxCell>
                <mxCell id="42" value="" style="rounded=0;whiteSpace=wrap;html=1;movable=0;resizable=0;rotatable=0;deletable=0;editable=0;locked=1;connectable=0;" vertex="1" parent="1">
                    <mxGeometry x="-1610" y="500" width="20" height="20" as="geometry"/>
                </mxCell>
                <mxCell id="44" value="If &quot;Yes&quot;, please provide name and contact number &lt;b&gt;&lt;font style=&quot;font-size: 14px;&quot;&gt;I&lt;/font&gt;&lt;/b&gt;n &lt;b&gt;&lt;font style=&quot;font-size: 14px;&quot;&gt;C&lt;/font&gt;&lt;/b&gt;ase of &lt;b&gt;&lt;font style=&quot;font-size: 14px;&quot;&gt;E&lt;/font&gt;&lt;/b&gt;mergency" style="text;html=1;align=left;verticalAlign=middle;whiteSpace=wrap;rounded=0;movable=0;resizable=0;rotatable=0;deletable=0;editable=0;locked=1;connectable=0;" vertex="1" parent="1">
                    <mxGeometry x="-1570" y="530" width="410" height="30" as="geometry"/>
                </mxCell>
                <mxCell id="47" value="ICE Name:" style="text;html=1;align=left;verticalAlign=bottom;whiteSpace=wrap;rounded=0;movable=0;resizable=0;rotatable=0;deletable=0;editable=0;locked=1;connectable=0;" vertex="1" parent="1">
                    <mxGeometry x="-1610" y="580" width="80" height="30" as="geometry"/>
                </mxCell>
                <mxCell id="48" value="+44 7123 456789" style="rounded=0;whiteSpace=wrap;html=1;align=center;movable=0;resizable=0;rotatable=0;deletable=0;editable=0;locked=1;connectable=0;" vertex="1" parent="1">
                    <mxGeometry x="-1517.5" y="590" width="300" height="30" as="geometry"/>
                </mxCell>
                <mxCell id="49" value="+44 7123 456789" style="rounded=0;whiteSpace=wrap;html=1;align=center;verticalAlign=middle;movable=0;resizable=0;rotatable=0;deletable=0;editable=0;locked=1;connectable=0;" vertex="1" parent="1">
                    <mxGeometry x="-1519.5" y="640" width="300" height="30" as="geometry"/>
                </mxCell>
                <mxCell id="50" value="ICE Phone:" style="text;html=1;align=left;verticalAlign=bottom;whiteSpace=wrap;rounded=0;movable=0;resizable=0;rotatable=0;deletable=0;editable=0;locked=1;connectable=0;" vertex="1" parent="1">
                    <mxGeometry x="-1610" y="640" width="80" height="30" as="geometry"/>
                </mxCell>
                <mxCell id="51" value="&lt;b&gt;&lt;font style=&quot;font-size: 14px;&quot;&gt;SUBMIT&lt;/font&gt;&lt;/b&gt;" style="rounded=1;whiteSpace=wrap;html=1;movable=0;resizable=0;rotatable=0;deletable=0;editable=0;locked=1;connectable=0;" vertex="1" parent="1">
                    <mxGeometry x="-1450" y="700" width="120" height="30" as="geometry"/>
                </mxCell>
            </root>
        </mxGraphModel>
    </diagram>
</mxfile>